# xmcd
#
# Track frame offsets:
#	150
#	14528
#	28018
#	39694
#	55661
#	75907
#	85808
#	111388
#	127515
#	142121
#	164998
#	182049
#	210982
#	238429
#	265374
#	291586
#
# Disc length: 4253 seconds
#
# Revision: 1
# Processed by: cddbd v1.4PL0 Copyright (c) Steve Scherf et al.
# Submitted via: audiograbber 1.81.01
#
DISCID=ea109b10
DTITLE=The Blues Masters - live on tour
DYEAR=1998
DGENRE=Blues
TTITLE0=Scuttlebutting
TTITLE1=Loving Cup
TTITLE2=Think
TTITLE3=It's you I've been thinking of
TTITLE4=So good up 'til now
TTITLE5=Statesborough Blues
TTITLE6=Giant Leap of Faith
TTITLE7=The Stumble
TTITLE8=Okey Dokey Stomp
TTITLE9=Blue Nocturne
TTITLE10=Sitetracked
TTITLE11=Bonustrack 1
TTITLE12=Bonustrack 2
TTITLE13=Bonustrack 3
TTITLE14=Bonustrack 4
TTITLE15=Bonustrack 5
EXTD=Mario Franke and the Blues Masters
EXTT0=
EXTT1=
EXTT2=
EXTT3=
EXTT4=
EXTT5=
EXTT6=
EXTT7=
EXTT8=
EXTT9=
EXTT10=
EXTT11=
EXTT12=
EXTT13=
EXTT14=
EXTT15=
PLAYORDER=
